<?xml version="1.0" standalone="no"?>
<!DOCTYPE svg PUBLIC "-//W3C//DTD SVG 20010904//EN"
 "http://www.w3.org/TR/2001/REC-SVG-20010904/DTD/svg10.dtd">
<svg version="1.0" xmlns="http://www.w3.org/2000/svg"
 width="90.000000pt" height="50.000000pt" viewBox="0 0 256.000000 256.000000"
 preserveAspectRatio="xMidYMid meet">

<g transform="translate(0.000000,256.000000) scale(0.100000,-0.100000)"
fill="#000000" stroke="none">
<path d="M1190 2554 c-208 -41 -370 -186 -438 -394 -23 -70 -28 -423 -8 -519
30 -144 107 -266 216 -343 l60 -42 0 -70 0 -71 -253 -80 c-138 -44 -283 -95
-320 -113 -94 -47 -194 -148 -241 -244 -60 -122 -66 -163 -66 -435 l0 -243
1140 0 1140 0 0 243 c0 264 -6 310 -59 422 -41 87 -110 166 -197 224 -66 44
-109 62 -338 136 -144 47 -268 85 -274 85 -8 0 -12 23 -12 73 l0 73 60 42
c109 77 186 199 216 343 20 96 15 449 -8 519 -78 237 -267 386 -503 395 -49 2
-101 1 -115 -1z m255 -182 c120 -57 201 -163 226 -298 7 -35 9 -132 7 -239 -5
-203 -17 -252 -84 -335 -82 -103 -186 -154 -314 -154 -128 0 -232 51 -314 154
-67 83 -79 132 -84 335 -4 197 4 268 42 351 44 96 156 187 263 214 71 18 186
5 258 -28z m-53 -1271 l3 -96 300 -96 c165 -53 323 -107 350 -121 68 -35 149
-124 188 -205 32 -68 32 -69 35 -250 l4 -183 -156 0 -156 0 0 145 0 145 -75 0
-75 0 0 -145 0 -145 -530 0 -530 0 0 145 0 145 -75 0 -75 0 0 -145 0 -145
-156 0 -156 0 4 183 3 183 37 75 c42 84 106 154 179 194 45 24 160 63 516 175
67 21 127 41 133 45 6 3 10 46 10 99 l0 92 110 0 109 0 3 -95z"/>
<path d="M1207 2246 c-81 -30 -140 -102 -149 -181 l-3 -30 73 -3 c69 -3 73 -2
81 22 11 28 47 56 73 56 32 0 71 -44 70 -80 -1 -47 -23 -64 -90 -70 l-57 -5
-3 -117 -3 -118 81 0 80 0 0 48 c0 46 2 50 44 79 54 38 75 69 92 135 25 94
-16 194 -100 243 -55 32 -135 41 -189 21z"/>
<path d="M1236 1619 c-52 -41 -23 -129 44 -129 67 0 96 88 44 129 -15 12 -34
21 -44 21 -10 0 -29 -9 -44 -21z"/>
</g>
</svg>
