<?xml version="1.0" standalone="no"?>
<!DOCTYPE svg PUBLIC "-//W3C//DTD SVG 20010904//EN"
 "http://www.w3.org/TR/2001/REC-SVG-20010904/DTD/svg10.dtd">
<svg version="1.0" xmlns="http://www.w3.org/2000/svg"
 width="32.000000pt" height="32.000000pt" viewBox="0 0 32.000000 32.000000"
 preserveAspectRatio="xMidYMid meet">

<g transform="translate(0.000000,32.000000) scale(0.100000,-0.100000)"
fill="#000000" stroke="none">
<path d="M120 300 c-11 -11 -20 -31 -20 -45 0 -25 0 -25 -36 -10 -64 27 -64
27 -64 -94 l0 -110 56 -21 c56 -20 57 -20 108 -2 49 18 53 18 96 1 25 -10 48
-18 53 -18 4 -1 7 49 7 110 l0 110 -37 16 c-21 8 -51 30 -66 49 -33 39 -67 44
-97 14z m78 -12 c17 -17 15 -42 -9 -82 -12 -20 -22 -36 -24 -36 -9 0 -45 70
-45 87 0 25 19 43 45 43 12 0 26 -5 33 -12z m-134 -63 l36 -15 0 -90 c0 -50
-4 -90 -9 -90 -4 0 -22 5 -40 11 l-31 11 0 94 c0 52 2 94 4 94 2 0 20 -7 40
-15z m234 -104 c1 -50 -1 -91 -6 -91 -5 0 -23 5 -41 11 l-31 11 0 87 c0 48 3
90 6 94 3 3 20 -1 37 -8 l32 -13 3 -91z m-117 40 c18 24 19 24 19 -43 0 -65 0
-66 -31 -77 -18 -6 -36 -11 -40 -11 -5 0 -9 37 -9 83 l1 82 21 -29 21 -28 18
23z"/>
<path d="M144 265 c-4 -9 -2 -21 4 -27 15 -15 44 -1 40 19 -4 23 -36 29 -44 8z"/>
</g>
</svg>
