<?xml version="1.0" standalone="no"?>
<!DOCTYPE svg PUBLIC "-//W3C//DTD SVG 20010904//EN"
 "http://www.w3.org/TR/2001/REC-SVG-20010904/DTD/svg10.dtd">
<svg version="1.0" xmlns="http://www.w3.org/2000/svg"
 width="88.000000pt" height="57.000000pt" viewBox="0 0 88.000000 57.000000"
 preserveAspectRatio="xMidYMid meet">

<g transform="translate(0.000000,57.000000) scale(0.100000,-0.100000)"
fill="#000000" stroke="none">
<path d="M400 375 c-51 -52 -47 -75 5 -25 l35 34 0 -72 c0 -41 4 -72 10 -72 6
0 10 31 10 72 l0 72 35 -34 c52 -50 56 -27 5 25 -24 25 -47 45 -50 45 -3 0
-26 -20 -50 -45z"/>
<path d="M332 218 l3 -43 115 0 115 0 3 28 c2 16 0 36 -4 45 -6 13 -9 8 -13
-18 l-6 -35 -95 0 -95 0 -3 33 c-5 48 -24 39 -20 -10z"/>
</g>
</svg>
